<svg width="580" height="400" xmlns="http://www.w3.org/2000/svg">
 <!-- Created with SVG Editor - http://github.com/mzalive/SVG Editor/ -->
 <g>
  <title>background</title>
  <rect fill="#fff" id="canvas_background" height="402" width="582" y="-1" x="-1"/>
  <g display="none" overflow="visible" y="0" x="0" height="100%" width="100%" id="canvasGrid">
   <rect fill="url(#gridpattern)" stroke-width="0" y="0" x="0" height="100%" width="100%"/>
  </g>
 </g>
 <g>
  <title>Layer 1</title>
  <path d="m184.499985,95.114578c-1,0 -4.499039,4.953323 -5,13c-0.994202,15.969078 -2.062805,30.65625 3,43c5.792404,14.122604 13.805649,19.44841 18,21c3.867004,1.430496 6.160507,2.378525 12,1c6.528748,-1.541229 13.835007,-8.51355 20,-18c7.589767,-11.678848 10.998474,-25.916946 12,-44c0.718903,-12.98011 0,-21 0,-25c0,-2 -1.153946,-2.948685 -4,-2c-4.743423,1.581139 -8.76268,8.050407 -11,18c-2.713684,12.06797 -5,36 -5,44c0,16 0,38 0,52c0,12 0,20 0,28c0,8 2.213593,13.359222 0,20c-1.581146,4.743423 -10.025818,9.679626 -12,9.999985c-3.121445,0.506531 -10.063599,1.871277 -16,1c-10.329636,-1.516068 -18.423355,-7.428223 -24,-11.999985c-5.468353,-4.482971 -7.480377,-10.635666 -9,-20c-1.281464,-7.896698 -1.031448,-15.412079 1,-19c1.39357,-2.461304 3.152237,-2.765366 5,-2c3.919693,1.623581 4.70546,7.346191 7,9c1.813995,1.307449 3.292892,2.292892 4,3c0.707108,0.707108 4,2 10,2c4,0 16,0 22,0c2,0 4.014984,-0.24437 6,0c4.092209,0.503769 9,1 12,1c4,0 9,0 12,0c6,0 20.29097,-2.173553 27.000015,-5c7.42984,-3.130112 15.071533,-6.15712 23,-12c8.557404,-6.306381 14.915955,-18.09552 23.999969,-26c5.439941,-4.733597 12.430511,-11.867767 15,-21c3.613586,-12.842972 3,-22 3,-28c0,-3 -2.917603,-4.386871 -4,-7c-0.38269,-0.923882 -1.520172,-2.323669 -3,-4c-2.386169,-2.703003 -4.026764,-1.770248 -5,-2c-2.176239,-0.513741 -3,-2 -5,-2c-1,0 -3.064178,-0.713699 -7,0c-8.406891,1.52446 -19.037384,9.082474 -25.999969,18c-7.17688,9.191971 -10.499878,22.983704 -11,46c-0.173798,7.998108 -0.617706,32.382309 9,42c9.617706,9.617691 24.023163,11.745651 35.999969,11c8.046692,-0.500961 18.377625,-3.93454 30,-11c9.553528,-5.80777 24.812836,-16.248428 34,-27c8.835907,-10.34053 17.848877,-28.046585 21,-38c2.863342,-9.044403 4,-15 4,-25c0,-11 0.800903,-19.06456 0,-24c-0.506531,-3.121445 -1,-4 -2,-5c-1,-1 -7,-1 -13,-1c-5,0 -16.158661,0.889343 -21,8c-2.320465,3.408142 -2.448914,8.214539 -1,13c2.089661,6.901688 7.234253,11.812439 16,23c6.167572,7.871536 12.779785,14.190582 18,20c4.819763,5.363754 8,14 12,22c2,4 5.23172,9.927673 7,16c1.152771,3.958679 2.493469,7.878555 3,11c0.48056,2.961258 0.38269,4.076126 0,5c-0.541199,1.306564 -5.752106,3.686295 -16,7c-7.846222,2.537109 -16.925781,5.497559 -22,6c-5.970795,0.591232 -16,0 -22,0c-4,0 -8.234009,-0.49295 -13,-3c-3.190979,-1.678558 -4.906342,-2.103409 -6,-3c-2.78833,-2.285873 -6,-3 -7,-5l-1,-1" id="svg_3" stroke-width="1.5" stroke="#000" fill="none"/>
 </g>
</svg>